<svg width="24" height="24" viewBox="0 0 24 24" fill="none" xmlns="http://www.w3.org/2000/svg">
<path d="M2.99169 16.3422C3.13873 16.7131 3.17147 17.1195 3.08569 17.5092L2.02069 20.7992C1.98638 20.966 1.99525 21.1389 2.04647 21.3013C2.09769 21.4638 2.18955 21.6105 2.31336 21.7275C2.43716 21.8445 2.5888 21.9279 2.75389 21.9698C2.91898 22.0118 3.09205 22.0109 3.25669 21.9672L6.66969 20.9692C7.03741 20.8962 7.41822 20.9281 7.76869 21.0612C9.90408 22.0584 12.3231 22.2694 14.5988 21.6569C16.8746 21.0444 18.861 19.6478 20.2074 17.7136C21.5538 15.7793 22.1738 13.4316 21.958 11.0847C21.7422 8.73787 20.7044 6.54265 19.0278 4.88638C17.3511 3.23011 15.1434 2.21922 12.7941 2.03208C10.4448 1.84494 8.10483 2.49356 6.18713 3.86352C4.26944 5.23348 2.89722 7.23672 2.31258 9.51982C1.72795 11.8029 1.96846 14.2191 2.99169 16.3422Z" stroke="white" stroke-width="1.5" stroke-linecap="round" stroke-linejoin="round"/>
<path d="M7.8276 13.0701C7.29153 12.5094 6.99352 11.7628 6.99611 10.987C6.99871 10.2113 7.30171 9.46666 7.84151 8.90951C8.38132 8.35236 9.11597 8.02599 9.89125 7.99887C10.6665 7.97176 11.4222 8.24603 11.9996 8.76411C12.4304 8.37743 12.9638 8.12363 13.5356 8.03332C14.1074 7.94301 14.693 8.02005 15.222 8.25515C15.751 8.49025 16.2007 8.87337 16.5168 9.35829C16.8329 9.84322 17.002 10.4092 17.0036 10.9881C17.006 11.7639 16.7078 12.5105 16.1716 13.0711L12.7246 16.6911C12.6311 16.7894 12.5186 16.8676 12.3939 16.921C12.2693 16.9745 12.135 17.002 11.9994 17.0019C11.8637 17.0018 11.7295 16.9741 11.6049 16.9205C11.4803 16.8669 11.3679 16.7885 11.2746 16.6901L7.8276 13.0701Z" fill="white"/>
</svg>
