<svg width="20" height="15" viewBox="0 0 20 15" fill="none" xmlns="http://www.w3.org/2000/svg">
<path d="M0 3.6C0 2.64522 0.379285 1.72955 1.05442 1.05442C1.72955 0.379285 2.64522 0 3.6 0H9.6C10.5548 0 11.4705 0.379285 12.1456 1.05442C12.8207 1.72955 13.2 2.64522 13.2 3.6V10.8C13.2 11.7548 12.8207 12.6705 12.1456 13.3456C11.4705 14.0207 10.5548 14.4 9.6 14.4H3.6C2.64522 14.4 1.72955 14.0207 1.05442 13.3456C0.379285 12.6705 0 11.7548 0 10.8V3.6ZM16.8444 12.9312L14.4 11.2428V3.156L16.8444 1.4688C17.0695 1.31347 17.3327 1.22263 17.6057 1.20609C17.8787 1.18955 18.1509 1.24795 18.3931 1.37497C18.6353 1.50199 18.8381 1.69279 18.9797 1.92676C19.1213 2.16072 19.1962 2.42893 19.1964 2.7024V11.6964C19.1964 11.97 19.1217 12.2383 18.9802 12.4725C18.8387 12.7066 18.6359 12.8976 18.3937 13.0248C18.1514 13.1519 17.8791 13.2104 17.606 13.1939C17.3329 13.1774 17.0696 13.0866 16.8444 12.9312Z" fill="#25254F"/>
</svg>
